<?xml version="1.0" encoding="utf-8"?>
<!-- Generator: Adobe Illustrator 26.0.2, SVG Export Plug-In . SVG Version: 6.00 Build 0)  -->
<svg version="1.1" id="Layer_1" xmlns="http://www.w3.org/2000/svg" xmlns:xlink="http://www.w3.org/1999/xlink" x="0px" y="0px"
	 viewBox="0 0 1770.98 662.61" style="enable-background:new 0 0 1770.98 662.61;" xml:space="preserve">
<path d="M1465.89,153.88h71.35l-23.66,86.82h162.39l23.66-86.82h71.35l-63.89,234.44h-71.35l24.42-89.63h-162.39l-24.42,89.63
	h-71.35L1465.89,153.88z"/>
<path d="M1160.77,313.46c-3.7,16.17-3,20.04,4.58,23.2c4.7,2.11,24.35,3.51,46.84,3.51c82.6,0,93.11-2.46,98.38-21.79
	c2.59-9.49-0.07-16.52-6.78-18.98c-7.06-2.46-7.06-2.46-43.87-2.81h-64.68c-43.23,0-60.49-2.46-73.49-10.19
	c-14.48-8.79-17.13-27.42-8.42-59.4c11.49-42.18,28.33-60.1,64.28-68.19c20.32-4.92,48.21-6.68,99.53-6.68
	c82.25,0,100.65,2.11,114.55,13c13.2,10.9,14.54,25.31,4.97,60.45h-69.59c5.56-20.39-0.71-23.2-46.75-23.2
	c-22.85,0-53.62,0.7-65.06,1.4c-19.36,1.4-27.03,6.33-30.67,19.68c-2.68,9.84,0.51,16.17,10.04,18.63c3.93,1.05,5.24,1.4,28.34,1.76
	h66.43c6.33,0,37.67,1.05,49.43,1.76c44.07,2.11,56.28,21.79,43.44,68.89c-11.78,43.24-29.61,62.21-66.06,69.59
	c-18.63,3.87-54,5.98-104.97,5.98c-81.19,0-98.64-1.76-116.5-12.3c-12.49-7.03-14.99-24.95-7.42-52.72
	c0.57-2.11,1.82-6.68,3.51-11.6H1160.77z"/>
<path d="M998.08,153.88h-95.6L755.06,330.5l0.05-0.17H593.77l48.08-176.45H570.5l-63.89,234.44h200.17h32.51h48.33l33.89-41.83
	h151.14l11.8,41.83h78.03L998.08,153.88z M860.49,297.64l75.39-93.5l25.13,93.5H860.49z"/>
<path d="M1274.79,433.29h-92.13l-145.89,174.78H851.91l10.89-39.97h115.87l37.44-44.71H874.99l10.61-38.95h163.13l42.83-51.15H831.8
	l-61.56,225.92h223.84h28.84h49.06l32.66-40.31h145.65l11.37,40.31h75.19L1274.79,433.29z M1142.2,571.83l72.65-90.1l24.23,90.1
	H1142.2z"/>
<path d="M1415.15,434.99h194.76c39.97,0,56.66,3.39,66.58,14.23c10.35,10.5,11.19,29.81,2.88,60.29
	c-11.44,42-26.13,58.6-56.68,65.03c26.82,4.74,32.06,16.6,22.06,50.81l-9.69,35.56h-69.77l7.66-28.11
	c6.3-24.39,0.92-29.47-30.09-28.79h-105.34l-15.51,56.9h-68.42L1415.15,434.99z M1559.93,548.8c33.19,0,40.74-4.06,46.83-26.42
	c3.97-14.56,4.28-20.66,1.17-25.41c-3.6-5.42-9.09-6.43-29.75-6.43h-109.74l-15.88,58.26H1559.93z"/>
<path d="M703.77,511.54c4.8-17.62-1.14-24.39-21.62-25.07h-17.28l-24.29-0.34l-25.16,0.34c-32.86,0-32.86,0-41.54,2.03
	c-13.37,3.05-20.54,9.48-26.11,23.71c-2.68,6.1-8.99,26.76-12.96,41.32c-8.31,30.49-8.58,42.68-0.85,49.12
	c6.41,5.08,15.34,7.11,33.2,7.45c7.36,0.34,7.36,0.34,49.7,0.34c44.96,0.34,54.07-2.03,63.89-16.93c1.41-2.71,2.59-5.76,4.43-12.53
	l0.65-2.37l0.83-3.05h-87.05l11.45-42h154.12l-8.49,31.16c-10.15,37.26-15.11,50.47-22.84,62.66c-13.51,21-32.2,31.16-61.48,34.21
	c-7.3,0.68-28.05,1.02-94.78,1.02c-51.82,0-71.53-1.02-84.93-4.06c-23.25-5.42-34.95-15.92-37.67-34.55
	c-2.62-15.24,0.02-31.16,11.47-73.16c13.2-48.44,21.17-67.74,34.31-83.66c14.96-17.62,33.37-26.76,63.61-30.82
	c16.13-2.03,43.85-3.05,86.86-3.05c61.65,0,81.02,1.02,94.32,4.4c32.49,8.81,38.87,26.42,25.61,73.84H703.77z"/>
<path d="M272.96,313.46c-3.7,16.17-3,20.04,4.58,23.2c4.7,2.11,24.35,3.51,46.84,3.51c82.6,0,93.11-2.46,98.38-21.79
	c2.59-9.49-0.07-16.52-6.78-18.98c-7.06-2.46-7.06-2.46-43.87-2.81h-64.68c-43.23,0-60.49-2.46-73.49-10.19
	c-14.48-8.79-17.13-27.42-8.42-59.4c11.49-42.18,28.33-60.1,64.28-68.19c20.32-4.92,48.21-6.68,99.53-6.68
	c82.25,0,100.65,2.11,114.55,13c13.2,10.9,14.54,25.31,4.97,60.45h-69.59c5.56-20.39-0.71-23.2-46.75-23.2
	c-22.85,0-53.62,0.7-65.06,1.4c-19.36,1.4-27.03,6.33-30.67,19.68c-2.68,9.84,0.51,16.17,10.04,18.63c3.93,1.05,5.24,1.4,28.34,1.76
	h66.43c6.33,0,37.67,1.05,49.43,1.76c44.07,2.11,56.28,21.79,43.44,68.89c-11.78,43.24-29.61,62.21-66.06,69.59
	c-18.63,3.87-54,5.98-104.97,5.98c-81.19,0-98.64-1.76-116.5-12.3c-12.49-7.03-14.99-24.95-7.42-52.72
	c0.57-2.11,1.82-6.68,3.51-11.6H272.96z"/>
<g>
	<path d="M455.49,401.74c0,0-48.89,58.61-135.62,57.93c-95.81-0.75-175.15-78.33-179.31-174.06
		c-4.37-100.63,73.81-185.52,174.38-189.73c66.95-2.8,114.86,35,114.86,35l-0.01-0.06l-31.91-39.26V31.1L317.3,0l-22.4,51.73
		l-12.33-0.02c-13.38-0.02-26.73,1.16-39.89,3.55l-12.32,2.24l-44.25-54.6L103.2,53.16l23.11,67.02l-12.34,16.04
		c-7.17,9.32-13.58,19.19-19.18,29.53l-9.13,16.87l-64.28-2.38L0,284.94l65.03,27.29l4.49,23.82c2.02,10.72,4.83,21.28,8.41,31.58
		l6.28,18.08l-43.82,47.52l63.64,72l55.89-25.63l5.12,3.52c13.02,8.94,26.97,16.45,41.59,22.42l9.74,3.98l-1.56,52.78l86.67,2.67
		l15.14-50.87l6.18-1.39c17.06-3.84,33.6-9.69,49.28-17.43h0l28.54,30.27l56.4-52.07l-10.94-43.05L455.49,401.74z"/>
</g>
</svg>
